<svg width="24" height="23" viewBox="0 0 24 23" fill="none" xmlns="http://www.w3.org/2000/svg">
<rect width="24" height="23" rx="6" fill="#FFCD1B"/>
<path d="M17 6H17.6C17.6 5.66863 17.3314 5.4 17 5.4V6ZM7 6V5.4C6.66863 5.4 6.4 5.66863 6.4 6H7ZM7 16H6.4V17.1874L7.35592 16.483L7 16ZM12 12.3158L12.3559 11.8328L12 11.5705L11.6441 11.8328L12 12.3158ZM17 16L16.6441 16.483L17.6 17.1874V16H17ZM17 5.4H7V6.6H17V5.4ZM6.4 6V16H7.6V6H6.4ZM7.35592 16.483L12.3559 12.7988L11.6441 11.8328L6.64408 15.517L7.35592 16.483ZM11.6441 12.7988L16.6441 16.483L17.3559 15.517L12.3559 11.8328L11.6441 12.7988ZM17.6 16V6H16.4V16H17.6Z" fill="black"/>
</svg>
