<svg width="140" height="72" viewBox="0 0 140 72" fill="none" xmlns="http://www.w3.org/2000/svg">
<path d="M58.671 14.3503L59.5641 7.98594C59.8846 5.70476 59.3952 4.92428 58.1357 4.92428C56.8762 4.92428 56.1091 5.70476 55.7885 7.98594L55.2246 12.0089C54.8124 14.95 56.341 17.2943 58.11 19.6358C60.4457 22.6372 63.1993 26.0604 62.4494 31.4061L61.9513 34.9498C61.1098 40.9555 57.5918 43.8364 52.6198 43.8364C47.6478 43.8364 44.9972 40.9555 45.8388 34.9498L46.6145 29.4262H52.6628L51.7697 35.7906C51.4405 38.132 51.9901 38.9125 53.3097 38.9125C54.6293 38.9125 55.4565 38.132 55.7828 35.7906L56.3467 31.7676C56.7932 28.5855 54.7151 25.8825 52.6313 23.2426C50.5188 20.3617 48.372 17.2972 49.0561 12.4335L49.5685 8.77216C50.4015 2.82674 53.8507 0.00610352 58.7626 0.00610352C63.6745 0.00610352 66.3251 2.88699 65.5007 8.77216L64.7193 14.356H58.6681L58.671 14.3503Z" fill="#FF4A01"/>
<path d="M76.5849 4.92391C75.2081 4.92391 74.481 5.82491 74.1776 7.98558L70.279 35.7873C69.9756 37.948 70.4393 38.9092 71.819 38.9092C73.1986 38.9092 73.8627 38.0082 74.1747 35.7873L75.3197 27.621H81.3708L80.3432 34.9466C79.4931 41.0097 75.9838 43.8332 71.132 43.8332C66.2802 43.8332 63.5008 41.0097 64.3509 34.9466L68.0205 8.76606C68.8621 2.76038 72.4229 0 77.2747 0C82.1265 0 84.8544 2.76324 84.0128 8.76606L82.9766 16.1519H76.9255L78.0705 7.98558C78.3739 5.82491 77.9016 4.92391 76.582 4.92391H76.5849Z" fill="#FF4A01"/>
<path d="M98.7307 34.9466C97.9063 40.8317 94.4886 43.8332 89.5194 43.8332C84.5503 43.8332 81.914 40.8317 82.7384 34.9466L86.408 8.76606C87.2152 3.00141 90.5728 0 95.6622 0C100.752 0 103.216 2.94115 102.4 8.76606L98.7307 34.9466ZM94.9122 4.92391C93.5955 4.92391 92.8684 5.82491 92.565 7.98558L88.6664 35.7873C88.363 37.948 88.8267 38.9092 90.1463 38.9092C91.4659 38.9092 92.2502 38.0082 92.5593 35.7873L96.4579 7.98558C96.7613 5.82491 96.289 4.92391 94.9093 4.92391H94.9122Z" fill="#FF4A01"/>
<path d="M117.598 34.9467C116.748 41.0098 113.179 43.8333 108.147 43.8333C103.114 43.8333 100.275 41.0098 101.128 34.9467L105.902 0.901123H111.951L107.059 35.7874C106.755 37.9481 107.279 38.9094 108.776 38.9094C110.273 38.9094 111.118 38.0084 111.43 35.7874L116.322 0.901123H122.37L117.595 34.9467H117.598Z" fill="#FF4A01"/>
<path d="M139.05 5.82504H134.439L129.238 42.9323H123.129L128.33 5.82504H123.719L124.409 0.901123H139.743L139.053 5.82504H139.05Z" fill="#FF4A01"/>
<path d="M24.1753 4.87637L20.4598 1.05653L20.4543 1.05371L5.66115 1.06783L4.78725 7.55561L16.9175 7.47939L12.9629 36.5728H0.88215L0 43.1283L12.0506 43.1001L12.0478 43.1199H14.8976L14.9251 43.0916L19.4073 38.9838L24.1753 4.87637Z" fill="#FF4A01"/>
<path d="M43.9781 2.3598C42.8067 1.07711 41.1782 0.35083 39.4734 0.35083H33.4927C31.7879 0.35083 30.1622 1.07711 28.988 2.3598L28.3135 3.10072C27.43 4.06713 26.8599 5.29126 26.6764 6.6091L25.3217 16.3523C24.7035 20.461 26.2728 23.5389 30.0239 24.7748L33.5152 26.119C35.443 26.7632 35.8099 27.7355 35.553 29.4663L34.7825 35.3057C34.5765 36.9281 33.6394 37.5226 32.1802 37.5256H32.1294C30.6194 37.5256 29.9392 36.8286 30.0408 34.9895L30.9666 27.9054L23.5689 27.92L22.7109 34.7493L22.646 35.2735C22.646 35.2999 22.6432 35.3262 22.6403 35.3555L22.5359 36.237C22.2988 38.2636 22.9988 40.2842 24.4269 41.687L24.9124 42.1644C26.064 43.2977 27.5909 43.9273 29.18 43.9273H34.5454C36.1316 43.9273 37.6586 43.2948 38.813 42.1644L40.069 40.9314C41.0738 39.9445 41.7314 38.6355 41.9374 37.2151L41.9515 37.1244L41.9769 36.9574L42.1604 35.54C42.1689 35.4756 42.1802 35.4141 42.1886 35.3497L42.3185 34.3335L42.406 33.6336L43.0636 28.4325C43.6281 23.9987 41.6975 21.3542 37.6304 19.9017L34.9208 18.8796C33.0947 18.1797 32.5217 17.2631 32.7786 15.5323L33.6535 8.93728C33.8596 7.42323 34.6922 6.72038 35.9934 6.71745H36.0978C37.557 6.71745 38.1836 7.52572 38.082 9.1452L37.0518 16.9322L44.3986 16.9175L45.6264 7.67215C45.8832 5.73639 45.2792 3.78307 43.9837 2.36566L43.9781 2.3598Z" fill="#FF4A01"/>
<path d="M3.94139 12.9143L1.36914 31.319H8.1158L10.6881 12.9143H3.94139Z" fill="#FF4A01"/>
<path d="M0 68.239V60.1203H4.01204C4.57223 60.1203 5.03774 60.2268 5.40856 60.4398C5.77939 60.6449 6.05554 60.9329 6.23701 61.3038C6.42637 61.6746 6.52105 62.1046 6.52105 62.5938C6.52105 63.0908 6.41848 63.5327 6.21334 63.9193C6.0082 64.298 5.71627 64.5939 5.33755 64.8069C4.96673 65.0199 4.52094 65.1264 4.00021 65.1264H1.12432V68.239H0ZM1.12432 64.156H3.9292C4.37104 64.156 4.72214 64.0179 4.98251 63.7418C5.25077 63.4656 5.38489 63.0869 5.38489 62.6056C5.38489 62.2821 5.32966 62.0099 5.21921 61.789C5.10875 61.5681 4.947 61.3984 4.73397 61.2801C4.52094 61.1538 4.25269 61.0907 3.9292 61.0907H1.12432V64.156Z" fill="#8E8E8E"/>
<path d="M10.1103 68.381C9.47907 68.381 8.9465 68.2666 8.51255 68.0378C8.08649 67.8011 7.75906 67.4421 7.53025 66.9609C7.30933 66.4796 7.19887 65.8681 7.19887 65.1264C7.19887 64.3769 7.30933 63.7654 7.53025 63.292C7.75906 62.8107 8.08649 62.4557 8.51255 62.2269C8.9465 61.9902 9.47907 61.8718 10.1103 61.8718C10.7415 61.8718 11.2701 61.9902 11.6961 62.2269C12.1301 62.4557 12.4575 62.8107 12.6784 63.292C12.8994 63.7654 13.0098 64.3769 13.0098 65.1264C13.0098 65.8681 12.8994 66.4796 12.6784 66.9609C12.4575 67.4421 12.1301 67.8011 11.6961 68.0378C11.2701 68.2666 10.7415 68.381 10.1103 68.381ZM10.1103 67.5053C10.5127 67.5053 10.848 67.4264 11.1162 67.2686C11.3845 67.1108 11.5857 66.8662 11.7198 66.5348C11.8618 66.1955 11.9328 65.7695 11.9328 65.2566V64.9963C11.9328 64.4755 11.8618 64.0495 11.7198 63.7181C11.5857 63.3867 11.3845 63.1421 11.1162 62.9843C10.848 62.8265 10.5127 62.7476 10.1103 62.7476C9.70788 62.7476 9.36861 62.8265 9.09246 62.9843C8.82421 63.1421 8.62301 63.3867 8.48888 63.7181C8.35475 64.0495 8.28769 64.4755 8.28769 64.9963V65.2566C8.28769 65.7695 8.35475 66.1955 8.48888 66.5348C8.62301 66.8662 8.82421 67.1108 9.09246 67.2686C9.36861 67.4264 9.70788 67.5053 10.1103 67.5053Z" fill="#8E8E8E"/>
<path d="M15.4411 68.239L13.5593 62.0139H14.6363L15.5831 65.4342C15.6304 65.5998 15.6738 65.7813 15.7133 65.9786C15.7606 66.1679 15.804 66.3454 15.8435 66.5111C15.8908 66.6689 15.9224 66.7912 15.9381 66.878H16.0091C16.0407 66.7281 16.0762 66.5585 16.1157 66.3691C16.163 66.1798 16.2025 65.9983 16.234 65.8247C16.2735 65.6511 16.305 65.517 16.3287 65.4223L17.1808 62.0139H18.3051L19.1691 65.4223C19.2006 65.5564 19.2361 65.7142 19.2756 65.8957C19.315 66.0693 19.3545 66.2429 19.3939 66.4164C19.4413 66.59 19.4728 66.7439 19.4886 66.878H19.5596C19.5912 66.7518 19.6267 66.6058 19.6661 66.4401C19.7056 66.2665 19.749 66.093 19.7963 65.9194C19.8437 65.7379 19.8871 65.5801 19.9265 65.446L20.8615 62.0139H21.8556L19.9857 68.239H18.9205L18.1158 65.0199C18.0842 64.87 18.0448 64.6964 17.9974 64.4992C17.9501 64.2941 17.9027 64.0889 17.8554 63.8838C17.816 63.6707 17.7804 63.4853 17.7489 63.3275H17.6779C17.6621 63.4459 17.6345 63.5958 17.595 63.7773C17.5635 63.9587 17.524 64.1599 17.4767 64.3808C17.4293 64.5939 17.3741 64.8069 17.311 65.0199L16.5062 68.239H15.4411Z" fill="#8E8E8E"/>
<path d="M25.2259 68.381C24.6105 68.381 24.0897 68.2666 23.6637 68.0378C23.2455 67.8011 22.926 67.4421 22.705 66.9609C22.492 66.4796 22.3855 65.8681 22.3855 65.1264C22.3855 64.3769 22.492 63.7654 22.705 63.292C22.926 62.8107 23.2494 62.4557 23.6755 62.2269C24.1016 61.9902 24.6341 61.8718 25.2732 61.8718C25.8571 61.8718 26.3463 61.9862 26.7408 62.215C27.1353 62.436 27.4311 62.7713 27.6284 63.221C27.8335 63.6629 27.9361 64.2191 27.9361 64.8897V65.3868H23.4625C23.4783 65.8839 23.5493 66.2942 23.6755 66.6176C23.8096 66.9332 24.0069 67.166 24.2673 67.3159C24.5276 67.4579 24.8551 67.5289 25.2495 67.5289C25.5178 67.5289 25.7506 67.4974 25.9478 67.4343C26.153 67.3632 26.3226 67.2646 26.4567 67.1384C26.5987 67.0121 26.7052 66.8622 26.7763 66.6887C26.8473 66.5151 26.8867 66.3257 26.8946 66.1206H27.9124C27.9045 66.452 27.8414 66.7597 27.7231 67.0437C27.6047 67.3198 27.4311 67.5565 27.2023 67.7538C26.9735 67.951 26.6934 68.1049 26.362 68.2154C26.0307 68.3258 25.6519 68.381 25.2259 68.381ZM23.4861 64.6057H26.8591C26.8591 64.2585 26.8197 63.9666 26.7408 63.7299C26.6619 63.4932 26.5474 63.2999 26.3975 63.15C26.2555 63.0001 26.0859 62.8936 25.8886 62.8305C25.6993 62.7595 25.4823 62.724 25.2377 62.724C24.8748 62.724 24.5671 62.791 24.3146 62.9251C24.0621 63.0593 23.8688 63.2644 23.7347 63.5406C23.6005 63.8167 23.5177 64.1718 23.4861 64.6057Z" fill="#8E8E8E"/>
<path d="M29.2243 68.239V62.0139H30.0646L30.1593 63.0435H30.2421C30.3053 62.8462 30.392 62.6608 30.5025 62.4873C30.613 62.3058 30.7629 62.1598 30.9522 62.0494C31.1416 61.931 31.3743 61.8718 31.6505 61.8718C31.7688 61.8718 31.8754 61.8837 31.97 61.9073C32.0726 61.9231 32.1476 61.9428 32.1949 61.9665V62.9251H31.8043C31.5361 62.9251 31.3033 62.9725 31.1061 63.0672C30.9167 63.154 30.7589 63.2802 30.6327 63.4459C30.5064 63.6116 30.4118 63.8088 30.3486 64.0376C30.2934 64.2664 30.2658 64.511 30.2658 64.7714V68.239H29.2243Z" fill="#8E8E8E"/>
<path d="M35.5237 68.381C34.9082 68.381 34.3875 68.2666 33.9614 68.0378C33.5433 67.8011 33.2237 67.4421 33.0028 66.9609C32.7898 66.4796 32.6833 65.8681 32.6833 65.1264C32.6833 64.3769 32.7898 63.7654 33.0028 63.292C33.2237 62.8107 33.5472 62.4557 33.9733 62.2269C34.3993 61.9902 34.9319 61.8718 35.571 61.8718C36.1549 61.8718 36.644 61.9862 37.0385 62.215C37.433 62.436 37.7289 62.7713 37.9261 63.221C38.1313 63.6629 38.2339 64.2191 38.2339 64.8897V65.3868H33.7603C33.776 65.8839 33.847 66.2942 33.9733 66.6176C34.1074 66.9332 34.3047 67.166 34.565 67.3159C34.8254 67.4579 35.1528 67.5289 35.5473 67.5289C35.8156 67.5289 36.0483 67.4974 36.2456 67.4343C36.4507 67.3632 36.6204 67.2646 36.7545 67.1384C36.8965 67.0121 37.003 66.8622 37.074 66.6887C37.145 66.5151 37.1845 66.3257 37.1924 66.1206H38.2102C38.2023 66.452 38.1392 66.7597 38.0208 67.0437C37.9025 67.3198 37.7289 67.5565 37.5001 67.7538C37.2713 67.951 36.9912 68.1049 36.6598 68.2154C36.3284 68.3258 35.9497 68.381 35.5237 68.381ZM33.7839 64.6057H37.1569C37.1569 64.2585 37.1174 63.9666 37.0385 63.7299C36.9596 63.4932 36.8452 63.2999 36.6953 63.15C36.5533 63.0001 36.3837 62.8936 36.1864 62.8305C35.9971 62.7595 35.7801 62.724 35.5355 62.724C35.1726 62.724 34.8648 62.791 34.6124 62.9251C34.3599 63.0593 34.1666 63.2644 34.0325 63.5406C33.8983 63.8167 33.8155 64.1718 33.7839 64.6057Z" fill="#8E8E8E"/>
<path d="M41.6406 68.381C41.1277 68.381 40.6859 68.2666 40.315 68.0378C39.9521 67.809 39.6681 67.454 39.4629 66.9727C39.2657 66.4835 39.1671 65.8523 39.1671 65.0791C39.1671 64.3453 39.2696 63.7418 39.4748 63.2684C39.6799 62.795 39.9639 62.4439 40.3269 62.215C40.6898 61.9862 41.1119 61.8718 41.5932 61.8718C41.8694 61.8718 42.1258 61.9034 42.3625 61.9665C42.5992 62.0296 42.8083 62.1283 42.9897 62.2624C43.1791 62.3965 43.3448 62.574 43.4868 62.795H43.5578V59.6824H44.5993V68.239H43.759L43.6643 67.3514H43.5815C43.3685 67.6986 43.0923 67.9589 42.753 68.1325C42.4138 68.2982 42.0429 68.381 41.6406 68.381ZM41.8891 67.4698C42.2836 67.4698 42.6031 67.383 42.8477 67.2094C43.0923 67.0358 43.2698 66.7833 43.3803 66.452C43.4986 66.1206 43.5578 65.7103 43.5578 65.2211V65.0318C43.5578 64.6057 43.5144 64.2467 43.4276 63.9548C43.3408 63.6629 43.2225 63.4301 43.0726 63.2565C42.9227 63.0829 42.7491 62.9606 42.5518 62.8896C42.3546 62.8186 42.1455 62.7831 41.9246 62.7831C41.538 62.7831 41.2224 62.862 40.9778 63.0198C40.7332 63.1697 40.5517 63.4104 40.4334 63.7418C40.315 64.0652 40.2559 64.4874 40.2559 65.0081V65.2566C40.2559 65.7931 40.319 66.2271 40.4452 66.5585C40.5715 66.882 40.7529 67.1147 40.9896 67.2567C41.2342 67.3987 41.534 67.4698 41.8891 67.4698Z" fill="#8E8E8E"/>
<path d="M51.6691 68.381C51.2509 68.381 50.8762 68.2982 50.5448 68.1325C50.2134 67.9589 49.9412 67.6986 49.7282 67.3514H49.6453L49.5388 68.239H48.7104V59.6824H49.7518V62.795H49.8228C49.9649 62.574 50.1306 62.3965 50.3199 62.2624C50.5093 62.1283 50.7223 62.0296 50.959 61.9665C51.1957 61.9034 51.4482 61.8718 51.7164 61.8718C52.1977 61.8718 52.6198 61.9862 52.9828 62.215C53.3457 62.4439 53.6258 62.795 53.8231 63.2684C54.0282 63.7418 54.1308 64.3453 54.1308 65.0791C54.1308 65.8523 54.0321 66.4835 53.8349 66.9727C53.6376 67.454 53.3575 67.809 52.9946 68.0378C52.6317 68.2666 52.1898 68.381 51.6691 68.381ZM51.4206 67.4698C51.7756 67.4698 52.0715 67.3987 52.3082 67.2567C52.5528 67.1147 52.7382 66.882 52.8644 66.5585C52.9907 66.2271 53.0538 65.7931 53.0538 65.2566V65.0081C53.0538 64.4874 52.9946 64.0652 52.8763 63.7418C52.7579 63.4104 52.5764 63.1697 52.3318 63.0198C52.0873 62.862 51.7717 62.7831 51.3851 62.7831C51.1641 62.7831 50.9551 62.8186 50.7578 62.8896C50.5606 62.9606 50.383 63.0829 50.2252 63.2565C50.0753 63.4301 49.957 63.6629 49.8702 63.9548C49.7913 64.2467 49.7518 64.6057 49.7518 65.0318V65.2211C49.7518 65.7103 49.8071 66.1206 49.9175 66.452C50.0359 66.7833 50.2173 67.0358 50.4619 67.2094C50.7144 67.383 51.034 67.4698 51.4206 67.4698Z" fill="#8E8E8E"/>
<path d="M55.9348 70.393C55.7454 70.393 55.5797 70.3772 55.4377 70.3456C55.3036 70.322 55.2128 70.3062 55.1655 70.2983V69.5409H55.6862C55.8756 69.5409 56.061 69.5014 56.2425 69.4225C56.4239 69.3436 56.5936 69.2095 56.7514 69.0201C56.9092 68.8308 57.0433 68.5704 57.1538 68.239L54.7394 62.0139H55.8282L57.0709 65.2211C57.1261 65.371 57.1893 65.5564 57.2603 65.7774C57.3392 65.9904 57.4141 66.2113 57.4851 66.4401C57.564 66.6689 57.6271 66.8701 57.6745 67.0437H57.7455C57.7771 66.9175 57.8165 66.7754 57.8638 66.6176C57.9112 66.4598 57.9585 66.2981 58.0059 66.1324C58.0611 65.9588 58.1124 65.7971 58.1597 65.6472C58.215 65.4894 58.2583 65.3513 58.2899 65.233L59.3432 62.0139H60.3965L58.2899 68.0615C58.1716 68.4008 58.0414 68.7124 57.8994 68.9965C57.7573 69.2884 57.5995 69.5369 57.426 69.7421C57.2524 69.9472 57.0433 70.105 56.7987 70.2155C56.5541 70.3338 56.2661 70.393 55.9348 70.393Z" fill="#8E8E8E"/>
<path d="M71.5652 68.4487C71.2808 70.4612 70.0496 71.3982 68.3315 71.3982H65.7942L67.7603 57.4492H70.2977C72.0158 57.4492 72.9852 58.3658 72.7053 60.3579L71.5652 68.4487ZM70.0678 59.0828H69.5695L68.063 69.7646H68.5614C69.1007 69.7646 69.4034 69.4652 69.5058 68.7278L70.7232 60.0993C70.8233 59.3823 70.6072 59.0828 70.0678 59.0828Z" fill="white"/>
<path d="M76.4737 57.4492C78.1918 57.4492 79.1453 58.4861 78.8608 60.4986L78.5878 62.4317C78.4171 63.6478 77.8004 64.4646 76.881 64.7641L76.8697 64.8435C77.7276 65.143 78.0917 65.9598 77.9187 67.1759L77.6047 69.4084C77.4886 70.2252 77.45 70.645 77.4955 71.3211L77.4841 71.4005H75.4656C75.4497 70.6631 75.4701 70.2252 75.5862 69.4084L75.9776 66.6381C76.0755 65.9416 75.8616 65.6217 75.3222 65.6217H74.8239L74.0092 71.4005H71.9702L73.9364 57.4492H76.4737ZM75.0492 64.0063H75.5475C76.0868 64.0063 76.3918 63.6863 76.4919 62.9694L76.897 60.0993C76.9971 59.3823 76.7809 59.0828 76.2416 59.0828H75.7432L75.0492 64.004V64.0063Z" fill="white"/>
<path d="M83.6353 59.0828H81.8762L81.2367 63.6251H82.8752L82.6454 65.2587H81.0069L80.372 69.7624H82.3108L82.081 71.396H78.1055L80.0693 57.4492H83.8651L83.6353 59.0828Z" fill="white"/>
<path d="M87.9361 71.3982H85.8971L86.1588 68.1311H85.1189L84.4589 71.3982H82.4404L85.8243 57.4492H88.4618L87.9338 71.3982H87.9361ZM86.2885 66.4975L86.7823 60.2989H86.7027L85.4488 66.4975H86.2885Z" fill="white"/>
<path d="M95.8688 71.3982H93.9709L95.7186 61.6943L96.0008 60.2603L95.9029 60.2399L93.1107 71.3982H91.2515L91.5246 60.2399L91.4427 60.2603L90.3117 71.4005H88.4138L90.3822 57.4492H93.3201L92.6442 67.2144L92.5327 68.569H92.6329L92.8854 67.2144L94.9176 57.4492H97.835L95.8688 71.3982Z" fill="white"/>
<path d="M101.342 61.9118L101.64 59.7995C101.747 59.0417 101.583 58.7831 101.164 58.7831C100.746 58.7831 100.489 59.0417 100.382 59.7995L100.193 61.1336C100.054 62.1092 100.566 62.8875 101.155 63.6634C101.934 64.6594 102.853 65.7962 102.603 67.5681L102.437 68.7434C102.157 70.7355 100.982 71.6929 99.3235 71.6929C97.6645 71.6929 96.7816 70.7355 97.0615 68.7434L97.3209 66.9102H99.3394L99.0413 69.0225C98.9321 69.8007 99.1141 70.0594 99.5556 70.0594C99.9971 70.0594 100.27 69.8007 100.382 69.0225L100.571 67.6884C100.721 66.6311 100.027 65.7349 99.3303 64.8591C98.6271 63.9039 97.9103 62.8875 98.1379 61.272L98.3085 60.0559C98.5862 58.0843 99.7376 57.1472 101.376 57.1472C103.015 57.1472 103.9 58.1047 103.624 60.0559L103.363 61.9096H101.344L101.342 61.9118Z" fill="white"/>
<path d="M109.316 59.0828H107.777L106.041 71.3982H104.002L105.738 59.0828H104.2L104.43 57.4492H109.545L109.316 59.0828Z" fill="white"/>
<path d="M113.687 68.7481C113.412 70.7016 112.272 71.6976 110.613 71.6976C108.954 71.6976 108.076 70.7016 108.351 68.7481L109.575 60.0605C109.844 58.1479 110.966 57.1519 112.663 57.1519C114.361 57.1519 115.182 58.1275 114.912 60.0605L113.687 68.7481ZM112.415 58.7854C111.976 58.7854 111.733 59.0849 111.632 59.8019L110.331 69.0271C110.231 69.7441 110.385 70.064 110.825 70.064C111.264 70.064 111.525 69.7645 111.63 69.0271L112.93 59.8019C113.03 59.0849 112.873 58.7854 112.413 58.7854H112.415Z" fill="white"/>
<path d="M118.571 58.7832C118.111 58.7832 117.87 59.0827 117.767 59.7996L116.468 69.0249C116.366 69.7418 116.523 70.0617 116.982 70.0617C117.442 70.0617 117.663 69.7622 117.767 69.0249L118.15 66.3158H120.168L119.825 68.7481C119.54 70.7605 118.37 71.6976 116.75 71.6976C115.13 71.6976 114.204 70.7605 114.488 68.7481L115.713 60.0605C115.992 58.0685 117.183 57.1519 118.801 57.1519C120.419 57.1519 121.329 58.0685 121.049 60.0605L120.703 62.5109H118.685L119.067 59.8019C119.167 59.0849 119.01 58.7854 118.571 58.7854V58.7832Z" fill="white"/>
<path d="M125.279 63.2076L125.275 63.2485L125.826 71.3982H123.787L123.536 65.1021H123.477L123.079 65.9393L122.31 71.3982H120.271L122.235 57.4492H124.274L123.755 61.1361L123.184 63.7658L123.24 63.7862L125.673 57.4492H127.692L125.282 63.2076H125.279Z" fill="white"/>
</svg>
