<svg width="28" height="29" viewBox="0 0 28 29" fill="none" xmlns="http://www.w3.org/2000/svg">
<path d="M13.9999 17.5833C14.7823 17.5833 15.4165 16.9491 15.4165 16.1667C15.4165 15.3843 14.7823 14.75 13.9999 14.75C13.2175 14.75 12.5832 15.3843 12.5832 16.1667C12.5832 16.9491 13.2175 17.5833 13.9999 17.5833Z" fill="#848484"/>
<path d="M22.4999 27.5001L26.7499 11.9167L14.0004 2L1.25 11.9167L5.49986 27.4999L22.4999 27.5001Z" stroke="#848484" stroke-width="2"/>
<path d="M13.9999 17.5833C14.7823 17.5833 15.4165 16.9491 15.4165 16.1667C15.4165 15.3843 14.7823 14.75 13.9999 14.75C13.2175 14.75 12.5832 15.3843 12.5832 16.1667C12.5832 16.9491 13.2175 17.5833 13.9999 17.5833Z" stroke="#848484" stroke-width="2"/>
</svg>
