<svg width="26" height="26" viewBox="0 0 26 26" fill="none" xmlns="http://www.w3.org/2000/svg">
<path d="M7.881 12.5184H2.76194C2.05515 12.5184 1.48218 13.1631 1.48218 13.9582V22.5971C1.48218 23.3923 2.05515 24.037 2.76194 24.037H7.881C8.5878 24.037 9.16077 23.3923 9.16077 22.5971V13.9582C9.16077 13.1631 8.5878 12.5184 7.881 12.5184Z" stroke="#848484" stroke-width="2" stroke-linecap="round"/>
<path d="M15.5597 6.75916H10.4407C9.73386 6.75916 9.16089 7.40378 9.16089 8.19897V22.5971C9.16089 23.3923 9.73386 24.0369 10.4407 24.0369H15.5597C16.2665 24.0369 16.8395 23.3923 16.8395 22.5971V8.19897C16.8395 7.40378 16.2665 6.75916 15.5597 6.75916Z" stroke="#848484" stroke-width="2" stroke-linecap="round"/>
<path d="M23.2382 1H18.1191C17.4123 1 16.8394 1.64463 16.8394 2.43982V22.5972C16.8394 23.3924 17.4123 24.037 18.1191 24.037H23.2382C23.945 24.037 24.5179 23.3924 24.5179 22.5972V2.43982C24.5179 1.64463 23.945 1 23.2382 1Z" stroke="#848484" stroke-width="2" stroke-linecap="round"/>
<path d="M2.76221 24.0367H20.6789" stroke="#848484" stroke-width="2" stroke-linecap="round" stroke-linejoin="round"/>
</svg>
