<svg width="39" height="39" viewBox="0 0 39 39" fill="none" xmlns="http://www.w3.org/2000/svg">
<g id="Group 3037">
<circle id="Ellipse 486" cx="19.5" cy="19.5" r="19.5" fill="#535353"/>
<path id="Vector 1672" d="M26 12H27C27 11.4477 26.5523 11 26 11V12ZM13 12V11C12.4477 11 12 11.4477 12 12H13ZM13 26H12V28.0701L13.6216 26.7833L13 26ZM19.5 20.8421L20.1216 20.0588L19.5 19.5655L18.8784 20.0588L19.5 20.8421ZM26 26L25.3784 26.7833L27 28.0701V26H26ZM26 11H13V13H26V11ZM12 12V26H14V12H12ZM13.6216 26.7833L20.1216 21.6254L18.8784 20.0588L12.3784 25.2167L13.6216 26.7833ZM18.8784 21.6254L25.3784 26.7833L26.6216 25.2167L20.1216 20.0588L18.8784 21.6254ZM27 26V12H25V26H27Z" fill="#1E1D1D"/>
</g>
</svg>
