<svg width="26" height="27" viewBox="0 0 26 27" fill="none" xmlns="http://www.w3.org/2000/svg">
<circle cx="13" cy="13.0371" r="12" stroke="#848484" stroke-width="2"/>
<path d="M12.8384 15.2655L12.1426 14.5473C11.9482 14.7356 11.8384 14.9948 11.8384 15.2655H12.8384ZM16.7142 11.5108L17.41 12.2291C17.6045 12.0407 17.7142 11.7816 17.7142 11.5108H16.7142ZM16.7142 8.58512H17.7142C17.7142 8.32946 17.6163 8.08351 17.4406 7.89781L16.7142 8.58512ZM14.7763 6.53711L15.5027 5.8498C15.3138 5.65019 15.0511 5.53711 14.7763 5.53711V6.53711ZM11.2235 6.53711V5.53711C10.9487 5.53711 10.686 5.65019 10.4972 5.8498L11.2235 6.53711ZM9.28564 8.58512L8.55928 7.89781C8.38356 8.08351 8.28564 8.32946 8.28564 8.58512H9.28564ZM8.28564 9.75541V10.7554H10.2856V9.75541H8.28564ZM11.8384 15.2655V16.192H13.8384V15.2655H11.8384ZM13.5342 15.9838L17.41 12.2291L16.0184 10.7926L12.1426 14.5473L13.5342 15.9838ZM17.7142 11.5108V8.58512H15.7142V11.5108H17.7142ZM17.4406 7.89781L15.5027 5.8498L14.05 7.22442L15.9879 9.27243L17.4406 7.89781ZM14.7763 5.53711H11.2235V7.53711H14.7763V5.53711ZM10.4972 5.8498L8.55928 7.89781L10.012 9.27243L11.9499 7.22442L10.4972 5.8498ZM8.28564 8.58512V9.75541H10.2856V8.58512H8.28564ZM11.8384 17.9475V20.0001H13.8384V17.9475H11.8384Z" fill="#848484"/>
</svg>
